PathFileType	4	(X/Y/Z)	 2.2Hzlow3min.trc
DataRate	CameraRate	NumFrames	NumMarkers	Units	OrigDataRate	OrigDataStartFrame	OrigNumFrames
200	200	8	35	m	200	376	1000
Frame#	Time	C7			LSH			RSH			MAN			RASI			LASI			HIPR			HIPL			RPSI			LPSI			COX			RTHI1			RTHI2			RTHI3			RTHI4			RSHA1			RSHA2			RSHA3			RSHA4			RHEEL			RMET5			RMET1			RTOE			LTHI1			LTHI2			LTHI3			LTHI4			LSHA1			LSHA2			LSHA3			LSHA4			LHEEL			LMET5			LMET1			LTOE			
		X1	Y1	Z1	X2	Y2	Z2	X3	Y3	Z3	X4	Y4	Z4	X5	Y5	Z5	X6	Y6	Z6	X7	Y7	Z7	X8	Y8	Z8	X9	Y9	Z9	X10	Y10	Z10	X11	Y11	Z11	X12	Y12	Z12	X13	Y13	Z13	X14	Y14	Z14	X15	Y15	Z15	X16	Y16	Z16	X17	Y17	Z17	X18	Y18	Z18	X19	Y19	Z19	X20	Y20	Z20	X21	Y21	Z21	X22	Y22	Z22	X23	Y23	Z23	X24	Y24	Z24	X25	Y25	Z25	X26	Y26	Z26	X27	Y27	Z27	X28	Y28	Z28	X29	Y29	Z29	X30	Y30	Z30	X31	Y31	Z31	X32	Y32	Z32	X33	Y33	Z33	X34	Y34	Z34	X35	Y35	Z35	
376	1.8800	-0.000000	0.000000	-0.000000	-0.182496	1.382899	-0.690882	-0.212803	1.352518	-0.347152	-0.136743	1.326008	-0.517160	-0.118168	0.936044	-0.396527	-0.098340	0.932672	-0.622250	-0.179542	0.986599	-0.375845	-0.158115	0.971976	-0.660059	-0.274651	0.962622	-0.470865	-0.268606	0.958171	-0.577662	-0.275004	0.970626	-0.521736	-0.202369	0.733117	-0.348381	-0.179589	0.678043	-0.347155	-0.119521	0.700831	-0.338171	-0.135620	0.760037	-0.339226	-0.194163	0.365745	-0.343854	-0.214276	0.327796	-0.350311	-0.157801	0.306943	-0.360332	-0.142717	0.344284	-0.358212	-0.328891	0.101539	-0.418177	-0.194296	0.029937	-0.356106	-0.156946	0.036979	-0.426530	-0.130002	0.027501	-0.423697	-0.164488	0.718411	-0.687762	-0.136776	0.663737	-0.680296	-0.077984	0.688555	-0.670826	-0.096953	0.745956	-0.676657	-0.189082	0.325536	-0.668455	-0.208743	0.290036	-0.667165	-0.152871	0.267186	-0.649547	-0.139492	0.309115	-0.653961	-0.330715	0.086525	-0.615737	-0.185062	0.032091	-0.659560	-0.150863	0.037515	-0.593304	-0.125063	0.026547	-0.588850	
377	1.8850	-0.000000	0.000000	-0.000000	-0.182755	1.388900	-0.690671	-0.213559	1.358026	-0.347550	-0.137325	1.331721	-0.517177	-0.117860	0.941090	-0.396769	-0.097729	0.937874	-0.622301	-0.179035	0.992127	-0.376362	-0.157275	0.977827	-0.659954	-0.274027	0.967932	-0.471211	-0.267882	0.963611	-0.578083	-0.274668	0.975844	-0.522027	-0.203050	0.738272	-0.348563	-0.180594	0.683075	-0.347200	-0.120402	0.705541	-0.338169	-0.136154	0.764829	-0.339348	-0.196149	0.369846	-0.343564	-0.215899	0.331710	-0.349941	-0.159188	0.311281	-0.359467	-0.144431	0.348768	-0.357423	-0.327571	0.104528	-0.417492	-0.193882	0.030239	-0.356109	-0.156797	0.036992	-0.426484	-0.130070	0.027529	-0.423746	-0.164498	0.723838	-0.688524	-0.137112	0.669006	-0.681047	-0.078251	0.693476	-0.671129	-0.096876	0.750987	-0.676962	-0.190458	0.329587	-0.669428	-0.209796	0.293903	-0.668107	-0.153655	0.271537	-0.650699	-0.140664	0.313585	-0.655130	-0.329241	0.089714	-0.616422	-0.184475	0.032472	-0.659530	-0.150738	0.037507	-0.593280	-0.125128	0.026549	-0.588833	
378	1.8900	-0.000000	0.000000	-0.000000	-0.182980	1.394884	-0.690431	-0.214356	1.363554	-0.347973	-0.137933	1.337426	-0.517201	-0.117603	0.946142	-0.396996	-0.097133	0.943071	-0.622323	-0.178584	0.997685	-0.376930	-0.156396	0.983712	-0.659816	-0.273412	0.973268	-0.471582	-0.267157	0.969092	-0.578523	-0.274146	0.981059	-0.522236	-0.203793	0.743432	-0.348748	-0.181665	0.688126	-0.347223	-0.121351	0.710246	-0.338082	-0.136760	0.769636	-0.339417	-0.198124	0.373959	-0.343214	-0.217504	0.335631	-0.349520	-0.160551	0.315658	-0.358513	-0.146138	0.353282	-0.356564	-0.326159	0.107557	-0.416779	-0.193442	0.030557	-0.356100	-0.156644	0.037010	-0.426430	-0.130147	0.027565	-0.423788	-0.164595	0.729297	-0.689295	-0.137523	0.674322	-0.681854	-0.078587	0.698441	-0.671561	-0.096883	0.756063	-0.677372	-0.191766	0.333640	-0.670466	-0.210776	0.297778	-0.669102	-0.154366	0.275918	-0.651921	-0.141775	0.318091	-0.656377	-0.327657	0.092931	-0.617096	-0.183856	0.032863	-0.659544	-0.150601	0.037500	-0.593266	-0.125204	0.026552	-0.588832	
379	1.8950	-0.000000	0.000000	-0.000000	-0.183170	1.400809	-0.690162	-0.215193	1.369062	-0.348419	-0.138576	1.343104	-0.517230	-0.117391	0.951167	-0.397215	-0.096558	0.948230	-0.622327	-0.178208	1.003226	-0.377525	-0.155488	0.989577	-0.659667	-0.272810	0.978600	-0.471972	-0.266429	0.974591	-0.578973	-0.273498	0.986275	-0.522468	-0.204592	0.748580	-0.348953	-0.182793	0.693172	-0.347222	-0.122379	0.714940	-0.337932	-0.137427	0.774426	-0.339435	-0.200093	0.378062	-0.342834	-0.219083	0.339544	-0.349050	-0.161881	0.320031	-0.357504	-0.147840	0.357805	-0.355656	-0.324625	0.110561	-0.416074	-0.192982	0.030882	-0.356081	-0.156488	0.037033	-0.426368	-0.130235	0.027610	-0.423817	-0.164782	0.734768	-0.690073	-0.138013	0.679647	-0.682703	-0.078991	0.703431	-0.672123	-0.096976	0.761155	-0.677881	-0.193019	0.337656	-0.671556	-0.211690	0.301625	-0.670133	-0.155002	0.280304	-0.653194	-0.142830	0.322585	-0.657692	-0.325962	0.096153	-0.617745	-0.183214	0.033254	-0.659606	-0.150445	0.037499	-0.593257	-0.125288	0.026551	-0.588852	
380	1.9000	-0.000000	0.000000	-0.000000	-0.183335	1.406627	-0.689865	-0.216061	1.374517	-0.348890	-0.139174	1.348701	-0.517276	-0.117216	0.956139	-0.397437	-0.096007	0.953322	-0.622311	-0.177894	1.008702	-0.378135	-0.154564	0.995374	-0.659522	-0.272217	0.983908	-0.472381	-0.265700	0.980074	-0.579432	-0.272752	0.991487	-0.522775	-0.205436	0.753696	-0.349144	-0.183977	0.698177	-0.347211	-0.123471	0.719571	-0.337714	-0.138148	0.779174	-0.339408	-0.202056	0.382128	-0.342447	-0.220639	0.343422	-0.348549	-0.163184	0.324388	-0.356458	-0.149533	0.362317	-0.354725	-0.322974	0.113535	-0.415386	-0.192504	0.031206	-0.356054	-0.156319	0.037069	-0.426295	-0.130334	0.027662	-0.423828	-0.165064	0.740225	-0.690852	-0.138582	0.684964	-0.683583	-0.079463	0.708420	-0.672811	-0.097162	0.766236	-0.678481	-0.194208	0.341627	-0.672669	-0.212535	0.305444	-0.671171	-0.155557	0.284677	-0.654498	-0.143825	0.327067	-0.659052	-0.324158	0.099360	-0.618367	-0.182554	0.033643	-0.659709	-0.150266	0.037508	-0.593253	-0.125372	0.026554	-0.588884	
381	1.9050	-0.000000	0.000000	-0.000000	-0.183474	1.412302	-0.689542	-0.216937	1.379894	-0.349385	-0.139772	1.354209	-0.517335	-0.117078	0.961038	-0.397666	-0.095484	0.958332	-0.622285	-0.177634	1.014076	-0.378743	-0.153638	1.001066	-0.659397	-0.271635	0.989175	-0.472806	-0.264976	0.985519	-0.579890	-0.271841	0.996664	-0.523110	-0.206320	0.758757	-0.349342	-0.185211	0.703123	-0.347179	-0.124623	0.724129	-0.337431	-0.138917	0.783855	-0.339345	-0.204012	0.386129	-0.342072	-0.222170	0.347230	-0.348052	-0.164455	0.328716	-0.355393	-0.151219	0.366791	-0.353799	-0.321225	0.116491	-0.414798	-0.192012	0.031521	-0.356021	-0.156147	0.037125	-0.426200	-0.130440	0.027732	-0.423804	-0.165436	0.745642	-0.691621	-0.139229	0.690251	-0.684486	-0.080000	0.713397	-0.673620	-0.097428	0.771288	-0.679167	-0.195351	0.345531	-0.673784	-0.213323	0.309207	-0.672200	-0.156034	0.289024	-0.655820	-0.144762	0.331521	-0.660443	-0.322250	0.102531	-0.618953	-0.181882	0.034026	-0.659843	-0.150054	0.037531	-0.593243	-0.125447	0.026568	-0.588925	
382	1.9100	-0.000000	0.000000	-0.000000	-0.183596	1.417804	-0.689203	-0.217802	1.385164	-0.349903	-0.140369	1.359623	-0.517400	-0.116972	0.965832	-0.397915	-0.094991	0.963224	-0.622254	-0.177412	1.019328	-0.379338	-0.152725	1.006616	-0.659300	-0.271069	0.994383	-0.473242	-0.264253	0.990909	-0.580354	-0.270964	1.001795	-0.523502	-0.207235	0.763746	-0.349546	-0.186488	0.707978	-0.347152	-0.125807	0.728586	-0.337095	-0.139728	0.788439	-0.339253	-0.205958	0.390057	-0.341726	-0.223669	0.350949	-0.347569	-0.165696	0.332992	-0.354331	-0.152893	0.371216	-0.352901	-0.319366	0.119421	-0.414284	-0.191509	0.031828	-0.355991	-0.155964	0.037209	-0.426068	-0.130546	0.027822	-0.423731	-0.165894	0.751000	-0.692375	-0.139952	0.695480	-0.685400	-0.080598	0.718324	-0.674519	-0.097766	0.776289	-0.679917	-0.196446	0.349371	-0.674869	-0.214051	0.312902	-0.673195	-0.156451	0.293311	-0.657143	-0.145658	0.335920	-0.661842	-0.320246	0.105659	-0.619515	-0.181197	0.034396	-0.660001	-0.149808	0.037582	-0.593233	-0.125510	0.026597	-0.588982	
383	1.9150	-0.000000	0.000000	-0.000000	-0.183734	1.423106	-0.688877	-0.218643	1.390299	-0.350438	-0.140903	1.364897	-0.517482	-0.116879	0.970503	-0.398178	-0.094533	0.967984	-0.622230	-0.177203	1.024420	-0.379914	-0.151834	1.011992	-0.659237	-0.270513	0.999517	-0.473684	-0.263542	0.996216	-0.580803	-0.270288	1.006887	-0.523973	-0.208171	0.768639	-0.349761	-0.187795	0.712730	-0.347126	-0.127017	0.732966	-0.336733	-0.140570	0.792910	-0.339141	-0.207896	0.393892	-0.341445	-0.225138	0.354564	-0.347141	-0.166916	0.337193	-0.353322	-0.154560	0.375578	-0.352048	-0.317398	0.122310	-0.413818	-0.190996	0.032132	-0.355966	-0.155765	0.037329	-0.425895	-0.130644	0.027932	-0.423596	-0.166427	0.756283	-0.693111	-0.140742	0.700634	-0.686311	-0.081248	0.723181	-0.675496	-0.098170	0.781214	-0.680714	-0.197502	0.353135	-0.675914	-0.214732	0.316515	-0.674144	-0.156806	0.297535	-0.658463	-0.146513	0.340246	-0.663226	-0.318167	0.108759	-0.620092	-0.180491	0.034765	-0.660169	-0.149532	0.037659	-0.593227	-0.125561	0.026647	-0.589070	
